<svg width="6" height="4" viewBox="0 0 6 4" fill="none" xmlns="http://www.w3.org/2000/svg">
<path d="M0.464286 0.729431C0.414063 0.729431 0.369419 0.751753 0.335938 0.785235L0.0569194 1.06425C0.0234377 1.09773 0.00111576 1.14796 0.00111576 1.1926C0.00111576 1.23724 0.0234377 1.28747 0.0569194 1.32095L2.65737 3.9214C2.69085 3.95488 2.74107 3.9772 2.78571 3.9772C2.83036 3.9772 2.88058 3.95488 2.91406 3.9214L5.51451 1.32095C5.54799 1.28747 5.57031 1.23724 5.57031 1.1926C5.57031 1.14796 5.54799 1.09773 5.51451 1.06425L5.23549 0.785235C5.20201 0.751753 5.15179 0.729431 5.10714 0.729431C5.0625 0.729431 5.01228 0.751753 4.97879 0.785235L2.78571 2.97832L0.592634 0.785235C0.559152 0.751753 0.508928 0.729431 0.464286 0.729431Z" fill="black"/>
</svg>
